<svg width="18" height="18" viewBox="0 0 18 18" fill="none" xmlns="http://www.w3.org/2000/svg">
    <path d="M15.7767 2.35077C15.4868 2.11597 15.0614 2.16068 14.8266 2.45064L8.6727 10.05C8.20215 10.6311 7.88453 11.3207 7.74878 12.056C7.72729 12.1724 7.8433 12.2664 7.95268 12.2211C8.64367 11.9355 9.25218 11.4814 9.72273 10.9003L15.8766 3.30093C16.1114 3.01098 16.0667 2.58557 15.7767 2.35077Z"
          fill="currentColor"/>
    <path d="M12.433 3.38838C11.3693 2.95453 10.2039 2.72417 9.0154 2.72316L8.99896 2.72642L8.63538 2.73359L8.29031 2.75353C7.48616 2.81552 6.69004 2.98552 5.91973 3.26031C4.97301 3.60219 4.12074 4.08852 3.38327 4.70777C2.64281 5.33014 2.05923 6.05205 1.64823 6.85342C1.2177 7.69202 1 8.57411 1 9.47777C1 10.3797 1.21876 11.2543 1.64993 12.0772C2.06052 12.859 2.64559 13.5603 3.38827 14.1604C4.12498 14.7543 4.97757 15.2196 5.92472 15.544C6.90026 15.878 7.93901 16.0475 9.00755 16.0475L9.37587 16.0409L9.73051 16.0213C10.0849 15.9951 10.4384 15.9493 10.7908 15.884L11.2788 15.7841L11.4111 15.7433C11.7584 15.6178 12.0592 15.361 12.258 15.0121C12.5073 14.5744 12.5717 14.035 12.4333 13.5406L12.3727 13.3048L12.3527 13.1576C12.3222 12.813 12.4058 12.4629 12.5933 12.1756C12.8346 11.8078 13.2211 11.5887 13.6325 11.5867H14.8269L14.9644 11.5819C16.0552 11.5057 16.9302 10.5289 16.996 9.30856L17 9.16076L16.9964 8.99867L16.9627 8.70626L16.9172 8.43318C16.7782 7.70799 16.4974 7.00774 16.0819 6.35288C15.9193 6.09571 15.7384 5.84852 15.54 5.61208L14.7303 6.61235C14.8343 6.74748 14.9313 6.88628 15.021 7.02855C15.3469 7.54229 15.5673 8.08464 15.6787 8.64579L15.7198 8.88741L15.7409 9.07396L15.7426 9.132L15.738 9.28007L15.7239 9.39462C15.6436 9.88384 15.3159 10.2738 14.9195 10.327L14.8269 10.3332H13.6306L13.4645 10.339C12.6936 10.3921 11.9833 10.8133 11.5411 11.4879C11.131 12.1125 10.9935 12.8781 11.1531 13.6194L11.1992 13.8041L11.224 13.8921L11.2427 13.9959C11.257 14.1355 11.2295 14.2771 11.1632 14.3935C11.118 14.4723 11.0582 14.532 10.9959 14.5598L10.9489 14.5745L10.4954 14.6646L10.1252 14.7219C9.75415 14.7711 9.38084 14.7959 9.00566 14.7959C8.0746 14.7959 7.17385 14.6493 6.32952 14.3596C5.5204 14.083 4.79495 13.6884 4.17494 13.1882C3.56645 12.6957 3.08927 12.1271 2.75833 11.4994C2.42242 10.8581 2.25158 10.1796 2.25158 9.48343C2.25158 8.78294 2.42361 8.09145 2.76194 7.4338C3.09598 6.7828 3.57637 6.1913 4.18756 5.67721C4.81161 5.15338 5.53601 4.74053 6.3401 4.449C7.08592 4.1784 7.85872 4.02546 8.64391 3.99146L9.00755 3.98417L9.34246 3.99117C10.1217 4.02374 10.8836 4.16964 11.598 4.41899L12.433 3.38838Z"
          fill="currentColor"/>
    <path d="M5.58789 10.6847C5.58615 10.1727 5.17168 9.75649 4.65969 9.75649C4.14769 9.75649 3.73148 10.1727 3.73148 10.6847C3.73148 11.1967 4.14595 11.6129 4.65969 11.6129C5.17168 11.6129 5.58789 11.1967 5.58789 10.6847Z"
          fill="currentColor"/>
    <path d="M6.43171 7.30941C6.43171 6.79742 6.0155 6.3812 5.50351 6.3812C4.99151 6.3812 4.5753 6.79742 4.5753 7.30941C4.5753 7.8214 4.98977 8.23761 5.50351 8.23761C6.0155 8.23761 6.43171 7.8214 6.43171 7.30941Z"
          fill="currentColor"/>
    <path d="M9.97576 6.04367C9.97576 5.53168 9.56129 5.11547 9.04756 5.11547C8.53557 5.11547 8.11935 5.53168 8.11935 6.04367C8.11935 6.55567 8.53382 6.97188 9.04756 6.97188C9.55955 6.97188 9.97576 6.55567 9.97576 6.04367Z"
          fill="currentColor"/>
</svg>
