<svg width="16" height="16" viewBox="0 0 16 16" fill="none" xmlns="http://www.w3.org/2000/svg">
    <path d="M1.33268 2C0.964492 2 0.666016 2.29848 0.666016 2.66667V13.3333C0.666016 13.7015 0.964492 14 1.33268 14C1.70087 14 1.99935 13.7015 1.99935 13.3333V8.66667H7.99935V13.3333C7.99935 13.7015 8.29783 14 8.66602 14C9.03421 14 9.33268 13.7015 9.33268 13.3333V2.66667C9.33268 2.29848 9.03421 2 8.66602 2C8.29783 2 7.99935 2.29848 7.99935 2.66667V7.33333H1.99935V2.66667C1.99935 2.29848 1.70087 2 1.33268 2Z"
          fill="currentColor"/>
    <path d="M12.0664 7.33317L14.3164 6.6665L14.3164 13.3332" stroke="currentColor" stroke-width="1.46667"
          stroke-linecap="round" stroke-linejoin="round"/>
</svg>
