<svg width="16" height="16" viewBox="0 0 16 16" fill="none" xmlns="http://www.w3.org/2000/svg">
    <path d="M1.33288 2C0.964583 2 0.666016 2.29848 0.666016 2.66667V13.3333C0.666016 13.7015 0.964583 14 1.33288 14C1.70119 14 1.99975 13.7015 1.99975 13.3333V8.66667H8.00158V13.3333C8.00158 13.7015 8.30014 14 8.66845 14C9.03675 14 9.33531 13.7015 9.33531 13.3333V2.66667C9.33531 2.29848 9.03675 2 8.66845 2C8.30014 2 8.00158 2.29848 8.00158 2.66667V7.33333H1.99975V2.66667C1.99975 2.29848 1.70119 2 1.33288 2Z"
          fill="currentColor"/>
    <path d="M15.3327 13.2482C15.3327 12.8738 15.0291 12.571 14.6545 12.571H12.573L14.8449 9.72355C15.1698 9.31013 15.3327 8.83642 15.3327 8.30636C15.3253 7.64503 15.1013 7.0953 14.6621 6.66358C14.2311 6.22902 13.6674 6.00731 12.9801 6C12.3585 6.00736 11.8333 6.22631 11.4088 6.65437C11.1621 6.91173 10.7811 7.35064 10.7811 7.72268C10.7811 8.11686 11.1007 8.4364 11.495 8.4364C11.87 8.4364 12.0073 8.2045 12.1568 7.95196C12.1966 7.88458 12.2374 7.81572 12.2838 7.74942C12.3204 7.69709 12.3617 7.64954 12.4077 7.60666C12.582 7.43858 12.7971 7.35588 13.0621 7.35588C13.3605 7.36206 13.5852 7.45639 13.7433 7.63827C13.8986 7.82405 13.9764 8.0421 13.9764 8.29594C13.9764 8.39324 13.9637 8.49797 13.938 8.61014C13.9046 8.71141 13.8337 8.83739 13.7277 8.97552L10.7926 12.6459C10.7548 12.6932 10.7342 12.752 10.7342 12.8125V13.4939C10.7342 13.6413 10.9122 13.9269 11.1386 13.9269H14.6545C15.0291 13.9269 15.3327 13.6226 15.3327 13.2482Z"
          fill="currentColor"/>
</svg>
