<svg width="16" height="16" viewBox="0 0 16 16" fill="none" xmlns="http://www.w3.org/2000/svg">
    <path d="M2.66842 1.35269C2.66842 1.08031 2.37244 0.911046 2.13768 1.04918L1.8118 1.24088L1.80929 1.24244C1.77504 1.26365 1.70187 1.3079 1.60902 1.36404C1.38703 1.49827 1.05253 1.70053 0.868345 1.81882C0.759327 1.88884 0.699219 2.00867 0.699219 2.13293C0.699219 2.44573 1.0522 2.63487 1.31408 2.47183C1.46126 2.3802 1.61547 2.28526 1.73016 2.2156V4.47094C1.73016 4.73003 1.9402 4.94007 2.19929 4.94007C2.45839 4.94007 2.66842 4.73003 2.66842 4.47094V1.35269Z"
          fill="currentColor"/>
    <path d="M5.42773 2.97019C5.42773 2.63527 5.72186 2.36377 6.08469 2.36377H14.6251C14.9879 2.36377 15.282 2.63527 15.282 2.97019C15.282 3.3051 14.9879 3.5766 14.6251 3.5766H6.08469C5.72186 3.5766 5.42773 3.3051 5.42773 2.97019Z"
          fill="currentColor"/>
    <path d="M2.03214 6.15283C1.23299 6.15283 0.699219 6.68293 0.699219 7.34643C0.699219 7.43625 0.772028 7.50906 0.861844 7.50906H1.43939C1.532 7.50906 1.60708 7.43398 1.60708 7.34136C1.60708 7.1335 1.755 6.95937 2.00174 6.95937C2.12079 6.95937 2.21582 6.9976 2.27978 7.05667C2.3427 7.11479 2.38373 7.2004 2.38373 7.3135C2.38373 7.51749 2.26144 7.68853 2.03421 7.92852L0.857649 9.20471C0.783467 9.28518 0.742281 9.39061 0.742281 9.50005C0.742281 9.74069 0.937358 9.93577 1.178 9.93577H3.1249C3.35042 9.93577 3.53324 9.75295 3.53324 9.52743C3.53324 9.30191 3.35042 9.11909 3.1249 9.11909H2.07521L2.68019 8.43947C3.07523 8.01668 3.32199 7.70909 3.32199 7.25017C3.32199 6.92966 3.18936 6.65144 2.95709 6.45541C2.72639 6.26069 2.40485 6.15283 2.03214 6.15283Z"
          fill="currentColor"/>
    <path d="M5.42773 8.04441C5.42773 7.70949 5.72186 7.43799 6.08469 7.43799H14.6251C14.9879 7.43799 15.282 7.70949 15.282 8.04441C15.282 8.37932 14.9879 8.65082 14.6251 8.65082H6.08469C5.72186 8.65082 5.42773 8.37932 5.42773 8.04441Z"
          fill="currentColor"/>
    <path d="M2.05168 11.1489C1.39932 11.1489 0.954446 11.4587 0.789885 11.9127C0.740796 12.0482 0.778083 12.1791 0.859286 12.271C0.938227 12.3604 1.05815 12.414 1.18529 12.414C1.30949 12.414 1.41324 12.361 1.49504 12.297C1.5761 12.2336 1.64373 12.153 1.69772 12.0832C1.75987 12.0028 1.86417 11.9377 2.02888 11.9377C2.16529 11.9377 2.26829 11.9786 2.33517 12.0367C2.40091 12.0938 2.43874 12.1733 2.43874 12.2691L2.43874 12.2702C2.43969 12.3774 2.39936 12.4635 2.33153 12.5242C2.26257 12.5859 2.15703 12.6283 2.01875 12.6283H1.92756C1.71044 12.6283 1.53442 12.8043 1.53442 13.0214C1.53442 13.2385 1.71044 13.4145 1.92756 13.4145H2.03648C2.2152 13.4145 2.34041 13.4627 2.41904 13.5298C2.496 13.5954 2.5391 13.688 2.54007 13.8027C2.54104 13.9194 2.49773 14.0157 2.41993 14.0843C2.34088 14.1541 2.21603 14.2038 2.04155 14.2038C1.83408 14.2038 1.69916 14.1298 1.62429 14.0328C1.57102 13.9637 1.5045 13.8851 1.42454 13.8233C1.34375 13.7608 1.24173 13.7099 1.11982 13.7099C0.992562 13.7099 0.872572 13.7633 0.793053 13.8523C0.711413 13.9438 0.672825 14.0741 0.719072 14.21C0.877137 14.6744 1.31962 15.0003 2.02382 15.0003C2.41385 15.0003 2.77687 14.8915 3.04479 14.691C3.31497 14.4888 3.48775 14.1924 3.48338 13.8327C3.47726 13.3858 3.23946 13.105 2.969 12.9686C3.1894 12.819 3.37776 12.5515 3.37191 12.1754C3.35985 11.5514 2.77582 11.1489 2.05168 11.1489Z"
          fill="currentColor"/>
    <path d="M5.37891 13.0747C5.37891 12.7398 5.67303 12.4683 6.03586 12.4683H14.5762C14.9391 12.4683 15.2332 12.7398 15.2332 13.0747C15.2332 13.4096 14.9391 13.6811 14.5762 13.6811H6.03586C5.67303 13.6811 5.37891 13.4096 5.37891 13.0747Z"
          fill="currentColor"/>
</svg>
