<svg xmlns="http://www.w3.org/2000/svg" width="16" height="16" viewBox="0 0 16 16" fill="none">
    <path d="M15.2903 13.4223V10.5778M15.2903 10.5778V7.7334M15.2903 10.5778C15.2903 12.1488 14.176 13.4223 12.8014 13.4223C11.4268 13.4223 10.3125 12.1488 10.3125 10.5778C10.3125 9.0069 11.4268 7.7334 12.8014 7.7334C14.176 7.7334 15.2903 9.0069 15.2903 10.5778Z"
          stroke="currentColor" stroke-width="1.06667" stroke-linecap="round" stroke-linejoin="round"/>
    <path d="M8.29707 13.5736L7.01043 10.0219L6.99938 10.022H2.6025L2.59148 10.0219L1.30484 13.5736C1.18095 13.9156 0.817838 14.0869 0.493812 13.9561C0.169785 13.8253 0.00754452 13.4421 0.131437 13.1001L3.9209 2.6393C4.22969 1.7869 5.37222 1.7869 5.68101 2.6393L9.47047 13.1001C9.59437 13.4421 9.43213 13.8253 9.1081 13.9561C8.78407 14.0869 8.42096 13.9156 8.29707 13.5736ZM4.80095 3.92264L3.07177 8.69602H6.53014L4.80095 3.92264Z"
          fill="currentColor"/>
</svg>