<svg width="16" height="16" viewBox="0 0 16 16" fill="none" xmlns="http://www.w3.org/2000/svg">
    <path d="M11.4521 12.9998C9.8985 12.9998 8.5332 11.783 8.5332 9.57476C8.5332 6.99075 10.4191 5.32269 12.444 3.77393C12.6622 3.60707 12.9749 3.64003 13.1658 3.83509C13.4046 4.07901 13.358 4.47296 13.0985 4.69659C11.6514 5.94357 9.90649 7.30062 10.0067 8.5644C10.1355 8.49912 10.773 8.26783 11.6875 8.26783C13.0057 8.26783 13.9944 9.2593 13.9944 10.5662C13.9944 11.9182 12.8645 12.9998 11.4521 12.9998Z"
          fill="currentColor"/>
    <path d="M9 10.5003C9 11.8808 10.1893 13 11.6562 13C13.1231 13 14.3125 11.88 14.3125 10.5003C14.3125 9.12057 13.1232 8 11.6562 8C10.1892 8 9 9.11923 9 10.5003Z"
          fill="currentColor"/>
    <path d="M4.58492 12.9998C3.03131 12.9998 1.66602 11.783 1.66602 9.57476C1.66602 6.99075 3.55189 5.32269 5.57686 3.77393C5.79502 3.60707 6.10772 3.64003 6.29865 3.83509C6.53739 4.07901 6.49083 4.47296 6.23132 4.69659C4.78423 5.94357 3.03931 7.30062 3.13952 8.5644C3.26833 8.49912 3.90586 8.26783 4.82032 8.26783C6.13853 8.26783 7.12719 9.2593 7.12719 10.5662C7.12719 11.9182 5.99729 12.9998 4.58492 12.9998Z"
          fill="currentColor"/>
    <path d="M2 10.5003C2 11.8808 3.18929 13 4.65619 13C6.12309 13 7.3125 11.88 7.3125 10.5003C7.3125 9.12057 6.12321 8 4.65619 8C3.18917 8 2 9.11923 2 10.5003Z"
          fill="currentColor"/>
</svg>
