<svg xmlns="http://www.w3.org/2000/svg" width="18" height="18" viewBox="0 0 18 18" fill="none">
    <path d="M5.74384 3.15249L5.74396 3.15236C6.52675 2.30431 7.72305 1.8498 9.20959 1.8498C10.7268 1.8498 11.8781 2.25715 12.6405 3.05049L12.6405 3.0505L12.6414 3.05138C12.9261 3.33309 13.2604 3.74175 13.5376 4.20095C13.6823 4.44072 13.65 4.69171 13.5109 4.88498C13.3708 5.07958 13.1219 5.21559 12.8356 5.21559C12.4309 5.21559 12.135 4.91746 11.9354 4.54029C11.8642 4.40567 11.778 4.2829 11.6699 4.15582C11.1345 3.47133 10.2823 3.11589 9.21882 3.11589C7.48878 3.11589 6.21085 4.13386 6.17718 5.60766C6.16412 6.17932 6.38227 6.68471 6.79026 7.0298H5.00981C4.82912 6.59685 4.74072 6.1026 4.75303 5.56342C4.77348 4.66823 5.11943 3.8241 5.74384 3.15249ZM11.046 9.89981L11.057 9.8498H11.046H3.67506C3.32691 9.8498 3.05004 9.59639 3.05001 9.25406C3.04999 8.90612 3.33251 8.5998 3.67496 8.5998H15.1469C15.491 8.5998 15.7719 8.89055 15.7719 9.23689C15.7719 9.58089 15.4933 9.8498 15.1469 9.8498H13.4056H13.3123L13.3639 9.92749C13.7455 10.5012 14.039 11.3176 14.0211 12.0987C13.9925 13.3503 13.5046 14.3611 12.6476 15.0598C11.7896 15.7594 10.5572 16.1498 9.03463 16.1498C6.99725 16.1498 5.48341 15.4594 4.71143 14.1972C4.57563 13.9715 4.44175 13.6702 4.32291 13.3372C4.15317 12.8615 4.53474 12.3846 5.05086 12.3846C5.43383 12.3846 5.74702 12.6633 5.88646 13.0329C6.01076 13.3623 6.1782 13.6207 6.42084 13.8765C7.00716 14.5084 7.94814 14.8318 9.14011 14.8318C10.1609 14.8318 11.0087 14.5799 11.6072 14.1216C12.2069 13.6623 12.5527 12.9983 12.5713 12.1842C12.5802 11.7934 12.5342 11.4966 12.4263 11.2227C12.3188 10.9495 12.1511 10.7023 11.922 10.4096C11.7476 10.1867 11.5315 10.0473 11.3599 9.96375C11.274 9.92192 11.1988 9.89387 11.1449 9.87623C11.1179 9.8674 11.0963 9.86116 11.0811 9.8571L11.0635 9.85257L11.0587 9.85143L11.0574 9.85112L11.057 9.85103L11.0569 9.851L11.0568 9.85099L11.046 9.89981Z"
          fill="currentColor" stroke="white" stroke-width="0.1"/>
</svg>